<svg xmlns="http://www.w3.org/2000/svg" width="64" height="64" fill="none" viewBox="0 0 64 64" id="close"><path fill="#2B3151" fill-rule="evenodd" d="M11.0573 11.0575C11.578 10.5368 12.4222 10.5368 12.9429 11.0575L52.9429 51.0575C53.4636 51.5782 53.4636 52.4224 52.9429 52.9431C52.4222 53.4638 51.578 53.4638 51.0573 52.9431L11.0573 12.9431C10.5366 12.4224 10.5366 11.5782 11.0573 11.0575Z" clip-rule="evenodd"></path><path fill="#2B3151" fill-rule="evenodd" d="M52.9429 11.0575C53.4636 11.5782 53.4636 12.4224 52.9429 12.9431L12.9429 52.9431C12.4222 53.4638 11.578 53.4638 11.0573 52.9431C10.5366 52.4224 10.5366 51.5782 11.0573 51.0575L51.0573 11.0575C51.578 10.5368 52.4222 10.5368 52.9429 11.0575Z" clip-rule="evenodd"></path></svg>