<svg xmlns="http://www.w3.org/2000/svg" viewBox="0 0 64 64" id="ghost">
  <path fill="#bdb2ff" d="M57.06,32.1l-.37.28a12.61,12.61,0,0,1-3.59,1.67,27.35,27.35,0,0,1-10.66,1.19c-.44,0-.95-.06-1.22.32a1.44,1.44,0,0,0-.2.83C41,39.75,42.22,43,43.45,46L46,52.37l.11.27a9.34,9.34,0,0,1,.9,4.1c-.12,1.52-1.18,3.06-2.58,3.06-1.23,0-2.19-1.13-2.86-2.25a8,8,0,0,0-2.34-3L36.81,61a27.76,27.76,0,0,0-6.14-8.34,1.55,1.55,0,0,0-1-.53,1.58,1.58,0,0,0-.94.58l-6.38,6.46c-.63-2.49.5-5.05,1.59-7.33l-7.12,1.89-1.64.44c-2.78.75-5.65,1.49-8.48,1C6,51.59,7.79,48.05,9.67,45l0-.07A84.21,84.21,0,0,1,21.83,29.74a18.39,18.39,0,0,0-10.09-4.17,35.13,35.13,0,0,1-4.47-.36,5.56,5.56,0,0,1-3.75-2.44,4,4,0,0,1-.39-3A2.7,2.7,0,0,1,4,18.37c1.43-1.13,3.41-.29,5,.45a36.68,36.68,0,0,0,5.13,1.85,23.86,23.86,0,0,0,7.2.92c2.81-.13,1.31-1.6.19-3.27s-2.13-3.38-2-5.45a10.57,10.57,0,0,1,1.88-4.8,11.67,11.67,0,0,1,3.23-3.91,7.94,7.94,0,0,1,3.64-1.11,16.41,16.41,0,0,1,15,7.93,8.65,8.65,0,0,1,1.15,2.64,7.76,7.76,0,0,1-1.27,5.72,20.88,20.88,0,0,1-4,4.21c2.35,1.44,4.81,2.91,7.5,3.13a11.73,11.73,0,0,0,7.63-2.48,38,38,0,0,0,6-5.86C61.78,23.19,60.78,29.14,57.06,32.1Z"></path>
  <path fill="#e2eafc" d="M14.2 20.67a7 7 0 0 1-11.07-.86A2.7 2.7 0 0 1 4 18.37c1.43-1.13 3.41-.29 5 .45A36.68 36.68 0 0 0 14.2 20.67zM57.06 32.1l-.37.28a12.61 12.61 0 0 1-3.59 1.67 27.35 27.35 0 0 1-10.66 1.19c-.44 0-.95-.06-1.22.32a1.44 1.44 0 0 0-.2.83C41 39.75 42.22 43 43.45 46L46 52.37l.11.27a12 12 0 1 1 11-20.54zM16.79 53.73l-1.64.44c-2.78.75-5.65 1.49-8.48 1C6 51.59 7.79 48.05 9.67 45l0-.07A12.06 12.06 0 0 1 16.79 53.73z"></path>
  <ellipse cx="32" cy="19" fill="#fdffb6" rx="2" ry="4"></ellipse>
  <ellipse cx="26" cy="12" fill="#ffc6ff" rx="2" ry="4"></ellipse>
  <ellipse cx="38" cy="12" fill="#ffc6ff" rx="2" ry="4"></ellipse>
  <ellipse cx="38" cy="12" rx="1" ry="2"></ellipse>
  <ellipse cx="26" cy="12" rx="1" ry="2"></ellipse>
  <path d="M60.65,17.37a1,1,0,0,0-1,.31,37.85,37.85,0,0,1-5.87,5.71,10.91,10.91,0,0,1-7,2.29,14.32,14.32,0,0,1-5.9-2.28,18,18,0,0,0,3.13-3.52,8.78,8.78,0,0,0,1.41-6.48,9.63,9.63,0,0,0-1.28-2.94,17.34,17.34,0,0,0-16-8.41,8.9,8.9,0,0,0-4.1,1.27,12.8,12.8,0,0,0-3.54,4.23,11.51,11.51,0,0,0-2,5.27,10.12,10.12,0,0,0,2.2,6.06l.48.68a11.07,11.07,0,0,1,.65,1,4.55,4.55,0,0,1-.53.05,22.86,22.86,0,0,1-6.89-.88,35.76,35.76,0,0,1-5-1.8c-1.54-.7-4.11-1.87-6.07-.32a3.67,3.67,0,0,0-1.24,2,4.91,4.91,0,0,0,.49,3.72,6.47,6.47,0,0,0,4.4,2.92,19.16,19.16,0,0,0,3.15.3c.48,0,1,0,1.45.08a17.38,17.38,0,0,1,8.66,3.27A85.44,85.44,0,0,0,8.83,44.47l0,0C6.86,47.65,5,51.4,5.69,55.36a1,1,0,0,0,.81.81c3.13.53,6.33-.34,8.9-1l1.36-.37L17,54.7l5-1.32.13,0a9.82,9.82,0,0,0-.78,6.07,1,1,0,0,0,1.68.45q3.2-3.24,6.38-6.45a2.42,2.42,0,0,1,.28-.27l.3.24a27.13,27.13,0,0,1,5.92,8,1,1,0,0,0,.9.57h0a1,1,0,0,0,.89-.65l1.88-5.06c.26.36.49.77.74,1.2l.33.57c1.09,1.82,2.34,2.74,3.72,2.74,2,0,3.42-2,3.58-4a10.28,10.28,0,0,0-1-4.55L47,52.15a1.51,1.51,0,0,0-.06-.15l-2.54-6.35c-1.13-2.83-2.42-6-2.36-9.22v-.21a2.21,2.21,0,0,1,.32,0A28.13,28.13,0,0,0,53.4,35a13.34,13.34,0,0,0,3.86-1.8,4.46,4.46,0,0,0,.43-.33c4.4-3.5,5-10.13,3.7-14.8A1,1,0,0,0,60.65,17.37Zm-4.21,14h0a2.49,2.49,0,0,1-.31.23A11.62,11.62,0,0,1,52.8,33.1a26.08,26.08,0,0,1-10.27,1.14,2.22,2.22,0,0,0-2.1.71A2.29,2.29,0,0,0,40,36.37c-.06,3.62,1.3,7,2.5,10l2.54,6.35a.5.5,0,0,1,0,.13l.06.14A8.47,8.47,0,0,1,46,56.66c-.08,1.12-.84,2.14-1.58,2.14s-1.52-1-2-1.76l-.32-.55a7.21,7.21,0,0,0-2.37-2.83,1,1,0,0,0-.51-.14.92.92,0,0,0-.33.06,1,1,0,0,0-.61.59l-1.63,4.39a28.47,28.47,0,0,0-5.31-6.64,2.49,2.49,0,0,0-1.75-.79A2.44,2.44,0,0,0,28,52l-4.8,4.85a16.22,16.22,0,0,1,1.62-4.59,1,1,0,0,0-.13-1.07,1,1,0,0,0-1-.33l-2.17.58-4.95,1.32-.29.07c-.45.13-.89.25-1.35.36a21.23,21.23,0,0,1-7.33,1.09c-.26-3.06,1.34-6.13,3-8.81a83.41,83.41,0,0,1,12-15A1,1,0,0,0,22.47,29a19.57,19.57,0,0,0-10.65-4.4c-.51,0-1-.06-1.53-.08a15.77,15.77,0,0,1-2.81-.26,4.63,4.63,0,0,1-3.1-2,2.92,2.92,0,0,1-.28-2.19,1.71,1.71,0,0,1,.55-.92c.92-.72,2.42-.14,4,.58a36.12,36.12,0,0,0,5.28,1.9,24.7,24.7,0,0,0,7.51,1c.82,0,2-.19,2.4-1.11s-.22-2-1-3.08l-.45-.64c-1-1.48-2-3.07-1.86-4.84A9.48,9.48,0,0,1,22.3,8.59,10.84,10.84,0,0,1,25.22,5a6.84,6.84,0,0,1,3.18-1,15.48,15.48,0,0,1,14.1,7.46,7.31,7.31,0,0,1,1,2.32,6.72,6.72,0,0,1-1.13,5,20.44,20.44,0,0,1-3.79,4,1,1,0,0,0-.34.84,1,1,0,0,0,.48.76c2.2,1.35,4.94,3,7.94,3.28A12.76,12.76,0,0,0,55,25a32.4,32.4,0,0,0,4.88-4.52C60.38,24.37,59.46,28.91,56.44,31.32Z"></path>
  <path d="M32 14c-1.71 0-3 2.15-3 5s1.29 5 3 5 3-2.15 3-5S33.71 14 32 14zm0 8c-.25 0-1-1.06-1-3s.75-3 1-3 1 1.06 1 3S32.25 22 32 22zM22.75 34A1 1 0 0 0 22 35.21a1.32 1.32 0 0 1-.33 1 5.15 5.15 0 0 1-.71.68c-.18.15-.37.31-.54.48a3.16 3.16 0 0 0-.62.76 4.76 4.76 0 0 0-.44 2.45c0 .27 0 .54 0 .8-.14 1.66-1.35 3-2.53 4.21l-.14.15a2.46 2.46 0 0 0-.56.87 2.76 2.76 0 0 0-.1.78c0 .55 0 1.1 0 1.65A1 1 0 0 0 17 50h.06A1 1 0 0 0 18 48.94c0-.5 0-1 0-1.51v-.16a.55.55 0 0 1 .13-.14l.13-.15c1.35-1.44 2.87-3.06 3.06-5.42 0-.32 0-.64 0-1a3.24 3.24 0 0 1 .18-1.45 1.33 1.33 0 0 1 .27-.31c.14-.14.29-.27.44-.4a6.65 6.65 0 0 0 1-1 3.27 3.27 0 0 0 .73-2.69A1 1 0 0 0 22.75 34zM32 31.6a1 1 0 0 0-1.32-.51 1 1 0 0 0-.51 1.31l.76 1.74a4.78 4.78 0 0 1-.31.48A4.43 4.43 0 0 0 29.88 36a4.49 4.49 0 0 0-.14 1.53l0 .49c0 1.52.11 3.09-.55 4.15a5.35 5.35 0 0 1-.62.79 7.81 7.81 0 0 0-.78 1 5.37 5.37 0 0 0-.59 4.36 1 1 0 0 0 1 .71.9.9 0 0 0 .28 0 1 1 0 0 0 .67-1.25A3.36 3.36 0 0 1 29.49 45a6.37 6.37 0 0 1 .59-.74 7.24 7.24 0 0 0 .84-1.07c1-1.58.9-3.54.83-5.27v-.49a3.19 3.19 0 0 1 .05-.9 3.26 3.26 0 0 1 .45-.79A4.47 4.47 0 0 0 33 34.4a1 1 0 0 0 0-.68zM37.41 50.09c-.19-.09-.29-.51-.27-1.09l0-.69a6.56 6.56 0 0 0-.71-4.25l-.18-.25a1.72 1.72 0 0 1-.2-.3A1.77 1.77 0 0 1 36 43a8.8 8.8 0 0 1 .37-3.57 1 1 0 0 0-.54-1.3 1 1 0 0 0-1.3.54A10.37 10.37 0 0 0 34 43a3.38 3.38 0 0 0 .23 1.31 3.58 3.58 0 0 0 .42.69l.12.17a4.91 4.91 0 0 1 .39 3c0 .24 0 .49 0 .73-.08 2 .88 2.74 1.45 3A1 1 0 0 0 37 52a1 1 0 0 0 .41-1.91z"></path>
</svg>
