<svg xmlns="http://www.w3.org/2000/svg" enable-background="new 0 0 67 67" viewBox="0 0 67 67" id="puzzle">
  <rect width="13" height="4.5" x="42.2" y="60.9" fill="#0FCAAD"></rect>
  <path fill="#FFF" d="M42.3 23l0 1.2c0 .4.2.9.5 1.2.8.8 1.4 1.9 1.4 3.1 0 3.2-3.6 5.5-6.9 3.2-.2-.1-.4-.3-.5-.5-1.5-2.2-1-4.5.5-5.8.3-.3.4-.7.4-1.1l0-1.3h-7.4v-7.4l1.3 0c.4 0 .8.1 1.1.4 1.3 1.5 3.5 2 5.7.6.2-.1.4-.3.5-.5 2.4-3.4 0-7-3.1-7-1.2 0-2.3.5-3.1 1.4-.3.3-.7.5-1.2.5l-1.2 0V3.6h19.4V23H42.3zM30.2 23v19.4H10.8c0 0 0 0 0 0V23h7.4l0-1.2c0-.4-.2-.9-.5-1.2-.8-.8-1.4-1.9-1.4-3.1 0-3.2 3.6-5.5 6.9-3.2.2.1.4.3.5.5 1.4 2.2.9 4.5-.6 5.8-.3.3-.4.7-.4 1.1l0 1.3H30.2z"></path>
  <path fill="#1FA6F8" d="M51.5,25.1v19.4c0,0,0,0,0,0H32.1v-7.4l-1.2,0c-0.4,0-0.9,0.2-1.2,0.5c-0.8,0.8-1.9,1.4-3.1,1.4
				c-3.2,0-5.5-3.6-3.2-6.9c0.1-0.2,0.3-0.4,0.5-0.5c2.2-1.5,4.5-0.9,5.8,0.5c0.3,0.3,0.7,0.4,1.1,0.4l1.3,0v-7.4h7.4l0,1.3
				c0,0.4-0.1,0.8-0.4,1.1c-1.5,1.3-2,3.6-0.5,5.8c0.1,0.2,0.3,0.4,0.5,0.5c3.3,2.3,6.9-0.1,6.9-3.2c0-1.2-0.5-2.3-1.4-3.1
				c-0.3-0.3-0.5-0.7-0.5-1.2l0-1.2H51.5z"></path>
  <path fill="#FF9889" d="M36.5,14.1c-0.1,0.2-0.3,0.4-0.5,0.5c-2.2,1.3-4.4,0.8-5.7-0.6c-0.3-0.3-0.7-0.4-1.1-0.4l-1.3,0V21h-7.4
				l0-1.3c0-0.4,0.1-0.8,0.4-1.1c1.5-1.3,2-3.6,0.5-5.8c-0.1-0.2-0.3-0.4-0.5-0.5c-3.3-2.3-6.9,0-6.9,3.2c0,1.2,0.5,2.3,1.4,3.1
				c0.3,0.3,0.5,0.7,0.5,1.2l0,1.2H8.4V1.6c0,0,0,0,0,0h19.4V9l1.2,0c0.4,0,0.9-0.2,1.2-0.5c0.8-0.8,1.9-1.4,3.1-1.4
				C36.5,7.2,38.9,10.8,36.5,14.1z"></path>
  <path fill="#FFF" d="M49.6,43.7v-7.9c0-1.5-1.2-2.8-2.8-2.8h0c-1.5,0-2.8,1.2-2.8,2.8v7.9l-2.2,8.9v7.9h12.3v-1.4l4-10.7
		l-3.4-8.3l-5-2.1"></path>
  <path fill="#222F59" d="M54.5,59.2l4.1-10.8l-3.5-8.6l-4.9-2c0-12,0-21.8,0-34.7c-10.1,0-29.8,0-39.9,0v19.4h0v19.9l0,0.5h19.4v0
		h14l0,0.6l-2.2,9v7.5h-1.8v5.3h0.8v-4.5h1v0h13.1v0h0.5v4.5h0.8v-5.3h-1.3V59.2z M30.7,4.1h18.4v18.4h-7.4v1.7
		c0,0.6,0.2,1.2,0.6,1.5c0.8,0.7,1.2,1.7,1.2,2.7c0,2-1.6,3.6-3.6,3.6c-1.3,0-2.5-0.7-2.8-1.2c-1.4-2.1-0.8-4.1,0.4-5.2
		c0.4-0.3,0.6-0.9,0.6-1.5v-1.8h-7.4v-6.4c0.5,0,1.1-0.1,1.5,0.3c2.1,2.4,5.9,1.6,7,0.1c1.2-1.7,1.4-3.6,0.6-5.3
		c-0.8-1.5-2.4-2.5-4.1-2.5c-1.3,0-2.6,0.5-3.5,1.5c-0.2,0.2-0.5,0.3-0.8,0.3h-0.7V4.1z M11.3,4.1h18.4v7.4h0h1.7
		c0.6,0,1.2-0.2,1.5-0.6c0.7-0.8,1.7-1.2,2.7-1.2c1.4,0,2.6,0.8,3.2,2c0.7,1.3,0.5,2.8-0.5,4.2c-0.8,1.1-3.8,1.7-5.5-0.2
		c-0.8-0.9-2-0.5-3.2-0.6h0v7.4h-6.4v-0.8c0-0.7,0.4-0.6,1.1-1.6c0.1-0.1,0.1-0.2,0.2-0.3c1.2-2,0.4-4.9-1-5.9
		c-5.3-3.7-10.4,3.2-6.2,7.1c0.1,0.1,0.2,0.2,0.2,0.3c0.1,0.3,0.1,0.6,0.1,1.2h-6.4V4.1z M11.3,42V23.5h7.4c0-3.5,0-2.3-1.2-3.9
		c-1.2-1.7-0.8-4,0.9-5.1c2.8-1.9,6.7,0.7,5.5,4.2c0,0,0,0.1-0.1,0.1c-0.1,0.2-0.1,0.3-0.2,0.4c-0.2,0.4-0.5,0.7-0.8,1
		c-1,0.8-0.5,2.3-0.6,3.3v0h7.4V30h-0.8c-0.3,0-0.5-0.1-0.7-0.3c-1.6-1.8-4.3-2.1-6.5-0.6c-1.3,0.8-2.3,3.6-1.1,5.8
		c0.8,1.5,2.4,2.5,4.1,2.5c1.3,0,2.6-0.6,3.4-1.5c0.2-0.2,0.5-0.3,0.8-0.3h0.7V42H11.3z M30.7,42v-7.4H29c-0.6,0-1.2,0.2-1.5,0.6
		c-0.7,0.8-1.7,1.2-2.7,1.2c-1.4,0-2.6-0.7-3.2-1.9c-1-1.8,0-4,0.8-4.5c1.8-1.2,3.9-1,5.2,0.4c0.3,0.4,0.9,0.6,1.4,0.6h1.8v-7.4h6.4
		v0.8c0,0.3-0.1,0.6-0.3,0.7c-1.5,1.4-2.3,3.9-0.6,6.5c0.5,0.8,2.1,1.6,3.7,1.6c2.6,0,4.6-2.1,4.6-4.6c0-1.3-0.6-2.6-1.5-3.4
		c-0.2-0.2-0.3-0.5-0.3-0.8v-0.7h6.4v10.1c-0.6-0.6-1.4-1-2.3-1c-1.7,0-3.2,1.4-3.2,3.2l0,6.2H30.7z M42.2,52.7l2.2-9v-7.9
		c0-1.3,1.1-2.4,2.4-2.4s2.4,1.1,2.4,2.4v7.9H50v-5.2l4.4,1.8l3.3,8l-4,10.6l0,1.2H42.3L42.2,52.7z"></path>
  <rect width="1.8" height="1.8" x="52.1" y="62.5" fill="#FFF"></rect>
</svg>
